# xmcd
#
# Track frame offsets: 
#        150
#        34862
#        47207
#        68682
#        124487
#        150075
#        160272
#        169802
#        180530
#        206632
#        249577
#
# Disc length: 3961 seconds
#
# Revision: 0
# Processed by: cddbd v1.5.2PL0 Copyright (c) Steve Scherf et al.
# Submitted via: ExactAudioCopy v1.0b1
#
DISCID=910f770b
DTITLE=Osmo Vänskä, Lahti Symphony - Sibelius: The Oceanides - Cassazio
DTITLE=ne
DYEAR=2000
DGENRE=Classical
TTITLE0=Oceanides, orchestra (Yale version)     Op. 73
TTITLE1=Suite, orchestra (fragments)   II. Tempo moderato - 
TTITLE2=Suite, orchestra (fragments)   III. Allegro 
TTITLE3=Cassazione, orchestra (first version)     Op. 6 
TTITLE4=Musik zu einer Scène, orchestra   Andante di molto - Allegrett
TTITLE4=o 
TTITLE5=Coronation March, orchestra 
TTITLE6=Morceau romantique sur un motif de M. Jacob de Julin, orchestr
TTITLE6=a   Andantino - Agitato 
TTITLE7=Porilaisten marssi, orchestra 
TTITLE8=Cortège, orchestra   Allegro moderato 
TTITLE9=Spring Song, orchestra (1895 version)   Moderato e molto soste
TTITLE9=nuto 
TTITLE10=Oceanides, orchestra (final version)     Op. 73 
EXTD=
EXTT0=
EXTT1=
EXTT2=
EXTT3=
EXTT4=
EXTT5=
EXTT6=
EXTT7=
EXTT8=
EXTT9=
EXTT10=
PLAYORDER=
